<svg width="24" height="24" viewBox="0 0 24 24" fill="none" xmlns="http://www.w3.org/2000/svg">
<path d="M21.7114 20.29L18.0014 16.61C19.4415 14.8144 20.1389 12.5353 19.9502 10.2413C19.7615 7.9473 18.701 5.81278 16.9869 4.27664C15.2727 2.7405 13.0352 1.91951 10.7343 1.98247C8.43341 2.04543 6.24409 2.98756 4.61651 4.61514C2.98893 6.24272 2.0468 8.43203 1.98384 10.7329C1.92088 13.0338 2.74188 15.2714 4.27801 16.9855C5.81415 18.6997 7.94867 19.7601 10.2427 19.9488C12.5367 20.1375 14.8158 19.4401 16.6114 18L20.2914 21.68C20.3843 21.7737 20.4949 21.8481 20.6168 21.8989C20.7387 21.9497 20.8694 21.9758 21.0014 21.9758C21.1334 21.9758 21.2641 21.9497 21.3859 21.8989C21.5078 21.8481 21.6184 21.7737 21.7114 21.68C21.8916 21.4935 21.9924 21.2443 21.9924 20.985C21.9924 20.7257 21.8916 20.4765 21.7114 20.29ZM11.0014 18C9.6169 18 8.26352 17.5895 7.11238 16.8203C5.96123 16.0511 5.06403 14.9579 4.53421 13.6788C4.0044 12.3997 3.86578 10.9922 4.13587 9.63436C4.40597 8.2765 5.07265 7.02922 6.05162 6.05025C7.03059 5.07128 8.27787 4.4046 9.63574 4.1345C10.9936 3.8644 12.4011 4.00303 13.6802 4.53284C14.9592 5.06265 16.0525 5.95986 16.8217 7.111C17.5908 8.26215 18.0014 9.61553 18.0014 11C18.0014 12.8565 17.2639 14.637 15.9511 15.9497C14.6384 17.2625 12.8579 18 11.0014 18Z" fill="#9BADBF"/>
</svg>
