<svg width="52" height="54" viewBox="0 0 52 54" fill="none" xmlns="http://www.w3.org/2000/svg">
<path d="M50.9305 11.5699C45.6066 11.5699 41.2883 7.25154 41.2883 1.92771C41.2883 1.61833 41.3012 1.29607 41.3398 0.986694H11.15C11.1758 1.29607 11.1887 1.60544 11.1887 1.92771C11.1887 3.26833 10.918 4.5574 10.4152 5.71755C8.94569 9.17224 5.51678 11.5828 1.53358 11.5828C1.10819 11.5828 0.708582 11.557 0.296082 11.5054C0.46366 16.0816 1.18553 20.4773 2.41014 24.6152C3.86678 29.591 6.03241 34.1801 8.76522 38.2277C13.2125 44.8148 19.1551 49.984 26 53.0261C40.5406 46.555 51.0078 30.5191 51.691 11.5441C51.4332 11.557 51.1883 11.5699 50.9305 11.5699ZM43.1445 26.6906H26.0129V46.9676C26.0129 46.9676 26.0129 46.9676 26 46.9676C21.0629 44.2863 16.693 40.2515 13.2769 35.1726C11.5109 32.5558 10.0285 29.707 8.85546 26.6906H26.0129V6.41365H36.5316C37.9496 10.9254 41.4301 14.5347 45.8644 16.1203C45.3617 19.7812 44.4465 23.339 43.1445 26.6906Z" fill="#7291B3"/>
</svg>
